<?xml version="1.0" encoding="utf-8"?>
<!-- Generator: Adobe Illustrator 23.0.1, SVG Export Plug-In . SVG Version: 6.00 Build 0)  -->
<svg version="1.1" id="Logo" xmlns="http://www.w3.org/2000/svg" xmlns:xlink="http://www.w3.org/1999/xlink" x="0px" y="0px"
	 viewBox="0 0 1000 475" enable-background="new 0 0 1000 475" xml:space="preserve">
<g id="BG" display="none">
	<rect id="XMLID_1406_" fill="#1E1F24" width="1000" height="475"/>
	<g id="XMLID_1399_" display="inline">
		<path id="XMLID_1405_" fill="#24292E" d="M506.61,425.96c-130.23,0-262.29-5.32-392.52-15.8c-22.82-1.84-41.46-18.85-45.34-41.38
			c-15.48-89.94-15.48-181.16,0-271.1c3.88-22.53,22.52-39.54,45.34-41.38c130.23-10.49,262.29-15.8,392.52-15.8
			c130.23,0,262.29,5.32,392.52,15.8c22.82,1.84,41.46,18.85,45.34,41.38c15.48,89.95,15.48,181.16,0,271.1
			c-3.88,22.53-22.52,39.54-45.34,41.38C768.9,420.65,636.83,425.96,506.61,425.96z"/>
		<g id="XMLID_1401_">
			<path id="XMLID_1402_" fill="#33CC99" d="M506.61,46.5c130.68,0,261.36,5.26,392.04,15.78c20.04,1.61,36.49,16.6,39.9,36.42
				c15.44,89.69,15.44,179.38,0,269.07c-3.41,19.81-19.86,34.8-39.9,36.42c-130.68,10.52-261.36,15.78-392.04,15.78
				s-261.36-5.26-392.04-15.78c-20.04-1.61-36.49-16.6-39.9-36.42c-15.44-89.69-15.44-179.38,0-269.07
				c3.41-19.81,19.86-34.8,39.9-36.42C245.25,51.76,375.93,46.5,506.61,46.5 M506.61,34.5c-130.39,0-262.61,5.32-393,15.82
				c-25.55,2.06-46.42,21.11-50.77,46.34c-7.8,45.31-11.75,91.25-11.75,136.57s3.95,91.26,11.75,136.57
				c4.34,25.23,25.22,44.28,50.77,46.34c130.39,10.5,262.61,15.82,393,15.82s262.61-5.32,393-15.82
				c25.55-2.06,46.42-21.11,50.77-46.34c7.8-45.31,11.75-91.25,11.75-136.57s-3.95-91.26-11.75-136.57
				c-4.34-25.23-25.22-44.28-50.77-46.34C769.22,39.82,637,34.5,506.61,34.5L506.61,34.5z"/>
		</g>
	</g>
	<path id="XMLID_115_" fill="#24292E" stroke="#2E7794" stroke-width="12" stroke-linecap="round" stroke-miterlimit="10" d="
		M809,341c-135.2,55.26-229.48,41.86-291.33,17.33c-50.41-19.99-87.26-39.48-151.33-42c-75.47-2.97-138.18,25.51-179.33,50"/>
	<g id="Bend_Guides">
	</g>
</g>
<g id="Scrubber" display="none">
	
		<line id="XMLID_2386_" display="inline" fill="none" stroke="#2E7794" stroke-width="13" stroke-linecap="round" stroke-miterlimit="10" x1="106.67" y1="237.5" x2="891.72" y2="237.5"/>
	
		<line id="XMLID_2385_" display="inline" fill="#24AFC4" stroke="#24AFC4" stroke-width="24" stroke-miterlimit="10" x1="151" y1="237.5" x2="847.38" y2="237.5"/>
	<path id="XMLID_1533_" display="inline" fill="#24AFC4" d="M859.33,262.47l-32.14-18.57c-5.5-3.16-5.5-11.1,0-14.31l32.14-18.57
		c5.5-3.16,12.38,0.78,12.38,7.15v37.14C871.71,261.65,864.83,265.64,859.33,262.47z"/>
	<path id="XMLID_2397_" display="inline" fill="#24AFC4" d="M145.56,211.78l32.14,18.57c5.5,3.16,5.5,11.1,0,14.31l-32.14,18.57
		c-5.5,3.16-12.38-0.78-12.38-7.15v-37.14C133.18,212.6,140.05,208.61,145.56,211.78z"/>
</g>
<g id="cliply">
	<g id="XMLID_2488_">
		<path fill="#1E1F24" d="M227.42,291.1c-10.09-5.23-17.97-12.48-23.64-21.76c-5.67-9.28-8.5-19.81-8.5-31.59
			c0-11.78,2.83-22.31,8.5-31.59s13.55-16.53,23.64-21.76c10.09-5.23,21.46-7.84,34.13-7.84c12.51,0,23.45,2.62,32.81,7.84
			c6.37,3.56,11.56,8.16,15.57,13.81c3.07,4.31,1.6,10.37-3.07,12.88l-12.18,6.54c-3.64,1.96-8.01,0.84-10.66-2.33
			c-5.82-6.97-13.39-10.46-22.69-10.46c-8.99,0-16.43,2.95-22.31,8.84c-5.89,5.89-8.84,13.92-8.84,24.08
			c0,10.16,2.94,18.19,8.84,24.08c5.89,5.89,13.33,8.84,22.31,8.84c9.41,0,16.99-3.48,22.74-10.44c2.68-3.24,7.28-4.12,10.97-2.1
			l11.79,6.43c4.66,2.54,6.1,8.64,2.96,12.92c-3.99,5.44-9.14,9.94-15.43,13.51c-9.35,5.3-20.29,7.95-32.81,7.95
			C248.89,298.94,237.51,296.33,227.42,291.1z"/>
	</g>
	<g id="XMLID_2520_">
		<path fill="#1E1F24" d="M346.33,132.22h19.18c4.87,0,8.82,3.95,8.82,8.82v148.04c0,4.87-3.95,8.82-8.82,8.82h-19.18
			c-4.87,0-8.82-3.95-8.82-8.82V141.04C337.51,136.17,341.46,132.22,346.33,132.22z"/>
	</g>
	<g id="XMLID_2480_">
		<path fill="#1E1F24" d="M415.36,178.24h14.57c4.87,0,8.82,3.95,8.82,8.82v102.02c0,4.87-3.95,8.82-8.82,8.82h-14.57
			c-4.87,0-8.82-3.95-8.82-8.82V187.06C406.54,182.19,410.49,178.24,415.36,178.24z"/>
	</g>
	<g id="XMLID_2527_">
		<circle fill="#1E1F24" cx="422.65" cy="146.31" r="17.26"/>
	</g>
	<g id="XMLID_2449_">
		<path fill="#1E1F24" d="M592.59,237.75c0-5.05,0.02-6.52-0.84-11.28c-4.92-28.23-27.46-48.69-55.98-48.69
			c-11.72,0-22.65,3-31.96,8.7c-0.2,0.21-0.42,0.36-0.61,0.58c0-4.87-3.95-8.82-8.82-8.82H479.8c-4.87,0-8.82,3.95-8.82,8.82V330.5
			c0,4.87,3.95,8.82,8.82,8.82l14.59,0c4.87,0,8.82-3.95,8.82-8.82l-0.02-40.51c7.89,5.36,16.26,7.52,31.21,7.19
			c18.75-0.41,32.01-5.31,43.73-18.88C589.13,265.72,592.59,252.7,592.59,237.75z M555.22,262.45c-5.67,5.96-12.92,8.95-21.76,8.95
			c-8.84,0-16.09-2.98-21.76-8.95c-5.67-5.96-8.5-13.95-8.5-23.97c0-10.01,2.83-18,8.5-23.97c5.67-5.96,12.92-8.95,21.76-8.95
			c8.84,0,16.09,2.98,21.76,8.95c5.67,5.96,9.11,13.96,9.11,23.97C564.33,248.5,560.88,256.49,555.22,262.45z"/>
	</g>
	<g id="XMLID_1344_">
		<path fill="#1E1F24" d="M630.52,132.22h19.18c4.87,0,8.82,3.95,8.82,8.82v148.04c0,4.87-3.95,8.82-8.82,8.82h-19.18
			c-4.87,0-8.82-3.95-8.82-8.82V141.04C621.7,136.17,625.65,132.22,630.52,132.22z"/>
	</g>
	<g id="XMLID_1336_">
		<path fill="#1E1F24" d="M740.92,301c-6.32-0.72-20.63-3.18-34.02-16.25c-8.39-8.18-14.94-21.5-16.17-39.26l0-58.42
			c0-4.87,3.95-8.82,8.82-8.82h14.57c4.87,0,8.82,3.95,8.82,8.82l0,56.94c0.68,15.57,12.54,25.28,25.35,25.28
			c7.17,0,13.56-2.94,18.34-7.89c5.11-5.27,7.8-12.33,6.93-24.09l0-50.24c0-4.87,3.95-8.82,8.82-8.82h14.57
			c4.87,0,8.82,3.95,8.82,8.82l0,97.74c0,21.79-6.28,38-17.33,48.6c-11.05,10.6-22.5,14.9-43.56,15.1
			c-10.63,0.1-21.38-3.5-31.2-7.46c-7.75-3.13-14.54-8.16-19.24-12.07c-3.62-3.02-4.53-5.18-2.26-9.3l9.06-9.06
			c3.34-3.34,5.53-6.7,9.23-3.64c2.55,2.11,6.9,5.75,11.6,8.13c6.34,3.22,11.58,5.05,19.69,5.6c11.46,0.78,17.21-1.32,23.13-6.07
			c8.45-6.77,8.64-19.46,8.64-19.46C760.21,301.34,752.5,301.74,740.92,301z"/>
	</g>
</g>
<g id="smiler_1_" display="none">
	<ellipse id="XMLID_1837_" display="inline" fill="#24292E" cx="533.44" cy="238.56" rx="25.81" ry="26.83"/>
	<path id="path22_2_" fill="#33CC99" stroke="#24292E" stroke-width="4" stroke-miterlimit="10" d="M554.76,238.49
		c0,11.74-9.51,21.25-21.25,21.25c-11.73,0-21.25-9.51-21.25-21.25c0-11.74,9.52-21.25,21.25-21.25
		C545.24,217.24,554.76,226.75,554.76,238.49"/>
	<g id="g14_3_" display="inline">
		<g id="g24_3_" transform="translate(29.457,19.2031)">
			<path id="path26_3_" fill="#24AFC4" d="M523.46,212.72c-0.11-0.25-2.78-6.12-8.27-6.12c-5.49,0-8.16,5.87-8.27,6.12
				c-0.17,0.38-0.06,0.83,0.27,1.1c0.32,0.26,0.79,0.27,1.13,0.03c0.02-0.02,2.34-1.67,6.87-1.67c4.5,0,6.82,1.64,6.87,1.67
				c0.16,0.12,0.36,0.18,0.55,0.18c0.2,0,0.41-0.07,0.58-0.2C523.52,213.56,523.63,213.11,523.46,212.72"/>
		</g>
		<g id="g28_3_" transform="translate(17.457,19.2031)">
			<path id="path30_3_" fill="#24AFC4" d="M513.19,212.72c-0.11-0.25-2.78-6.12-8.27-6.12c-5.49,0-8.16,5.87-8.27,6.12
				c-0.17,0.38-0.06,0.83,0.27,1.1c0.33,0.26,0.79,0.27,1.13,0.03c0.02-0.02,2.34-1.67,6.87-1.67c4.5,0,6.82,1.64,6.87,1.67
				c0.16,0.12,0.36,0.18,0.55,0.18c0.2,0,0.41-0.07,0.58-0.2C513.25,213.56,513.36,213.11,513.19,212.72"/>
		</g>
		<g id="g32_3_" transform="translate(19,15)">
			<path id="path34_3_" fill="#24AFC4" d="M514.51,224.73c-6.72,0-11.19-0.78-16.7-1.86c-1.26-0.24-3.71,0-3.71,3.71
				c0,7.42,8.53,16.7,20.42,16.7c11.89,0,20.42-9.28,20.42-16.7c0-3.71-2.45-3.96-3.71-3.71
				C525.69,223.95,521.23,224.73,514.51,224.73"/>
		</g>
		<g id="g36_3_" transform="translate(10,14)" display="none">
			<path id="path38_3_" display="inline" fill="#24AFC4" d="M506.8,227.59c0,0,5.57,1.86,16.7,1.86s16.7-1.86,16.7-1.86
				s-3.71,7.42-16.7,7.42S506.8,227.59,506.8,227.59"/>
		</g>
	</g>
</g>
</svg>
