<svg id="Logo" xmlns="http://www.w3.org/2000/svg" xmlns:xlink="http://www.w3.org/1999/xlink" viewBox="0 0 1381.07 581.46"><defs><style>.cls-1,.cls-3{fill:none;}.cls-2{fill:#24292e;}.cls-3{stroke:#2e7794;stroke-linecap:round;stroke-width:20.24px;}.cls-3,.cls-4{stroke-miterlimit:10;}.cls-4,.cls-5{fill:#24afc4;}.cls-4{stroke:#24afc4;stroke-width:37.37px;}.cls-6{clip-path:url(#clip-path);}.cls-7{fill:#3c9;}</style><clipPath id="clip-path" transform="translate(-66.07 -55)"><path class="cls-1" d="M405.83,333h45.09l22.87-7.79-6.39-53.5-117.08-37-89.16,43.07-10.22,111s30.74,68.63,30.74,69.64,128.53,26.92,128.53,26.92l36.67-34,21.19-47.44-17.15-11.11-6.62-18.5-54.06,2.24-16.37,23.11.5-23.16s-16.15-41.16-15.47-43.41,3.47-11,3.47-11l29,3.36,13.46,6.51Z"/></clipPath></defs><title>logo-full-alt</title><g id="BG"><path class="cls-2" d="M1367,611.89a7593.84,7593.84,0,0,1-1220.75,0,68.64,68.64,0,0,1-62.13-56.7,1225.7,1225.7,0,0,1,0-418.92,68.64,68.64,0,0,1,62.13-56.69,7591.53,7591.53,0,0,1,1220.75,0,68.64,68.64,0,0,1,62.13,56.69,1225.7,1225.7,0,0,1,0,418.92A68.63,68.63,0,0,1,1367,611.89Z" transform="translate(-66.07 -55)"/></g><g id="Scrubber"><line class="cls-3" x1="67.85" y1="297.37" x2="1290.13" y2="297.37"/><line class="cls-4" x1="136.88" y1="297.37" x2="1221.1" y2="297.37"/><path class="cls-5" d="M1305.77,391.26l-50-28.91a12.86,12.86,0,0,1,0-22.27l50-28.92A12.85,12.85,0,0,1,1325,322.3v57.82A12.87,12.87,0,0,1,1305.77,391.26Z" transform="translate(-66.07 -55)"/><path class="cls-5" d="M194.47,312.32l50.05,28.92a12.87,12.87,0,0,1,0,22.27l-50.05,28.91a12.85,12.85,0,0,1-19.27-11.14V323.46A12.87,12.87,0,0,1,194.47,312.32Z" transform="translate(-66.07 -55)"/></g><g id="cliply"><g id="Layer_7" data-name="Layer 7"><g class="cls-6"><path class="cls-7" d="M375.08,456c-20.94,0-40.06-4.41-56.83-13.11a99.79,99.79,0,0,1-39.95-36.81c-9.56-15.65-14.41-33.6-14.41-53.36s4.85-37.7,14.41-53.35a99.8,99.8,0,0,1,39.95-36.81c16.79-8.7,35.9-13.11,56.83-13.11,20.77,0,39.27,4.45,55,13.23a81.07,81.07,0,0,1,26.86,23.84,21.75,21.75,0,0,1-7.51,31.73l-19,10.19a20.74,20.74,0,0,1-9.77,2.46,21.87,21.87,0,0,1-16.75-8c-7.54-9-17.08-13.41-29.19-13.41-11.89,0-21.4,3.73-29.08,11.41S334.23,339,334.23,352.76s3.74,24.16,11.42,31.83S362.84,396,374.73,396c12.26,0,21.82-4.36,29.24-13.34A21.69,21.69,0,0,1,431,377.46l18.36,10a21.83,21.83,0,0,1,10.86,14.44,21.52,21.52,0,0,1-3.63,17.43,83.76,83.76,0,0,1-26.53,23.26C414.39,451.52,395.88,456,375.08,456Z" transform="translate(-66.07 -55)"/><path class="cls-2" d="M375.07,257.49q29.24,0,51.08,12.21a72.91,72.91,0,0,1,24.24,21.5,13.77,13.77,0,0,1-4.77,20.05l-19,10.18a12.52,12.52,0,0,1-6,1.51,13.94,13.94,0,0,1-10.61-5.13q-13.59-16.29-35.33-16.29-21,0-34.74,13.75t-13.76,37.49q0,23.75,13.76,37.49T374.73,404q22,0,35.41-16.25a13.67,13.67,0,0,1,17.07-3.27l18.36,10a13.75,13.75,0,0,1,4.61,20.12,75.45,75.45,0,0,1-24,21Q404.31,448,375.07,448q-29.58,0-53.14-12.21A91.53,91.53,0,0,1,285.13,402q-13.25-21.68-13.24-49.19t13.24-49.18a91.46,91.46,0,0,1,36.8-33.88q23.57-12.21,53.14-12.21m0-16c-22.21,0-42.57,4.71-60.5,14a107.56,107.56,0,0,0-43.09,39.74c-10.34,16.92-15.59,36.28-15.59,57.52s5.25,40.61,15.59,57.53A107.48,107.48,0,0,0,314.58,450c17.91,9.29,38.27,14,60.49,14s42.05-4.87,59-14.47a91.63,91.63,0,0,0,29-25.48,29.54,29.54,0,0,0,5-23.91,29.87,29.87,0,0,0-14.84-19.73l-18.35-10a29.69,29.69,0,0,0-37.08,7.14C391.92,384.7,384.59,388,374.73,388s-17.24-2.88-23.42-9.07-9.08-14.66-9.08-26.18,3-20.07,9.08-26.17,13.63-9.07,23.42-9.07,17,3.35,23,10.54a29.82,29.82,0,0,0,22.89,10.88,28.76,28.76,0,0,0,13.55-3.41l19-10.19a29.78,29.78,0,0,0,10.24-43.42A89.08,89.08,0,0,0,434,255.74c-16.92-9.46-36.73-14.25-58.89-14.25Z" transform="translate(-66.07 -55)"/></g></g><rect class="cls-7" x="419.26" y="125.46" width="73.33" height="273.96" rx="21.73"/><path class="cls-2" d="M536.92,188.46a13.73,13.73,0,0,1,13.73,13.73v230.5a13.73,13.73,0,0,1-13.73,13.73H507.06a13.73,13.73,0,0,1-13.73-13.73V202.19a13.73,13.73,0,0,1,13.73-13.73h29.86m0-16H507.06a29.77,29.77,0,0,0-29.73,29.73v230.5a29.77,29.77,0,0,0,29.73,29.73h29.86a29.77,29.77,0,0,0,29.73-29.73V202.19a29.77,29.77,0,0,0-29.73-29.73Z" transform="translate(-66.07 -55)"/><rect class="cls-7" x="526.74" y="197.11" width="66.16" height="202.31" rx="21.73"/><path class="cls-2" d="M637.24,260.12A13.73,13.73,0,0,1,651,273.85V432.69a13.73,13.73,0,0,1-13.73,13.73H614.55a13.74,13.74,0,0,1-13.74-13.73V273.85a13.73,13.73,0,0,1,13.74-13.73h22.69m0-16H614.55a29.76,29.76,0,0,0-29.74,29.73V432.69a29.77,29.77,0,0,0,29.74,29.73h22.69A29.77,29.77,0,0,0,667,432.69V273.85a29.76,29.76,0,0,0-29.73-29.73Z" transform="translate(-66.07 -55)"/><path class="cls-7" d="M625.89,245.28a34.88,34.88,0,1,1,34.88-34.88A34.92,34.92,0,0,1,625.89,245.28Z" transform="translate(-66.07 -55)"/><path class="cls-2" d="M625.89,183.53A26.88,26.88,0,1,1,599,210.4a26.87,26.87,0,0,1,26.88-26.87m0-16a42.88,42.88,0,1,0,42.88,42.87,42.93,42.93,0,0,0-42.88-42.87Z" transform="translate(-66.07 -55)"/><path class="cls-7" d="M714.86,518.91a21.76,21.76,0,0,1-21.73-21.73V273.85a21.75,21.75,0,0,1,21.73-21.73h22.7a21.72,21.72,0,0,1,18.15,9.79A104.42,104.42,0,0,1,802,251.4c47.49,0,86.58,33.89,95,82.43,1.43,7.86,1.43,10.71,1.43,18.34v.59c0,27.94-7.55,49-24.48,68.41-18.81,21.78-40.93,31.4-73.93,32.13-1.59,0-3.12.05-4.62.05-14.84,0-26.17-1.77-36.14-5.86l0,49.68a21.76,21.76,0,0,1-21.74,21.74H714.86Zm83.55-208.25c-11.58,0-20.76,3.75-28.08,11.44s-11,18.22-11,31.81,3.61,24,11,31.81,16.5,11.44,28.08,11.44,20.76-3.74,28.08-11.44c8-8.37,12-19.07,12-31.81s-4-23.44-12-31.81C819.17,314.41,810,310.66,798.41,310.66Z" transform="translate(-66.07 -55)"/><path class="cls-2" d="M802,259.4c44.41,0,79.49,31.85,87.16,75.8,1.35,7.41,1.31,9.7,1.31,17.56,0,23.28-5.38,43.55-22.51,63.14-18.24,21.14-38.89,28.76-68.08,29.4-1.52,0-3,.05-4.44.05-20.53,0-32.67-3.45-44.15-11.25l0,63.07a13.74,13.74,0,0,1-13.74,13.74H714.86a13.73,13.73,0,0,1-13.73-13.73V273.85a13.73,13.73,0,0,1,13.73-13.73h22.7a13.73,13.73,0,0,1,13.73,13.73c.3-.34.64-.57,1-.9,14.49-8.89,31.51-13.55,49.76-13.55m-3.59,145.76q20.64,0,33.88-13.93c8.82-9.29,14.18-21.72,14.18-37.32s-5.36-28-14.18-37.32-20.12-13.93-33.88-13.93-25,4.65-33.88,13.93-13.24,21.73-13.24,37.32,4.41,28,13.24,37.32,20.12,13.93,33.88,13.93M802,243.4a113.43,113.43,0,0,0-44.15,8.74,29.6,29.6,0,0,0-20.29-8h-22.7a29.76,29.76,0,0,0-29.73,29.73V497.18a29.77,29.77,0,0,0,29.73,29.73h22.72a29.77,29.77,0,0,0,29.74-29.74l0-38.69c8.17,2,17.31,2.87,28.14,2.87,1.54,0,3.16,0,4.79-.05,17.43-.39,31.39-3,44-8.25,13.49-5.63,25.21-14.34,35.84-26.64a103.13,103.13,0,0,0,20.79-35.62c3.8-11.38,5.65-23.82,5.65-38v-.59c0-7.67,0-11.18-1.56-19.78-9.16-52.4-51.47-89-102.91-89Zm-3.59,145.76c-9.4,0-16.48-2.84-22.28-9-6-6.26-8.84-14.86-8.84-26.3s2.89-20,8.84-26.29c5.8-6.11,12.88-9,22.28-9s16.48,2.85,22.28,9c6.49,6.82,9.78,15.67,9.78,26.29s-3.29,19.47-9.78,26.3c-5.81,6.11-12.89,9-22.28,9Z" transform="translate(-66.07 -55)"/><rect class="cls-7" x="862.73" y="125.46" width="73.32" height="273.96" rx="21.73"/><path class="cls-2" d="M980.4,188.46a13.73,13.73,0,0,1,13.73,13.73v230.5a13.73,13.73,0,0,1-13.73,13.73H950.54a13.74,13.74,0,0,1-13.74-13.73V202.19a13.74,13.74,0,0,1,13.74-13.73H980.4m0-16H950.54a29.77,29.77,0,0,0-29.74,29.73v230.5a29.77,29.77,0,0,0,29.74,29.73H980.4a29.77,29.77,0,0,0,29.73-29.73V202.19a29.77,29.77,0,0,0-29.73-29.73Z" transform="translate(-66.07 -55)"/><path class="cls-7" d="M1126.94,533.2c-18.21,0-35.94-6.16-50.87-12.2-10.31-4.16-21.11-10.92-32.08-20.07-6-5-12.1-12.35-5.4-24.49l.55-1,14.91-14.91c.64-.65,1.26-1.3,1.86-1.92,3.55-3.74,7.59-8,13.83-8a14.65,14.65,0,0,1,9.44,3.72l.23.19c3.73,3.09,10,8.26,16.35,11.49,8.86,4.5,15.88,7.09,27.57,7.88,2.24.15,4.35.23,6.28.23,12,0,17.92-2.91,24.19-7.94a26.08,26.08,0,0,0,7.69-11.12,87.09,87.09,0,0,1-28.7,4.57c-3.43,0-7.09-.14-11.88-.45h-.2l-.19,0a96.35,96.35,0,0,1-57.65-27.52c-15.9-15.51-25.69-39.06-27.57-66.31l0-.27V273.85A21.75,21.75,0,0,1,1057,252.12h22.69a21.73,21.73,0,0,1,21.74,21.73v88.47c1,20.7,16.56,31.54,31.47,31.54a31.17,31.17,0,0,0,22.81-9.84c5-5.16,9.91-12.92,8.56-31.36l0-.29V273.85A21.75,21.75,0,0,1,1186,252.12h22.69a21.76,21.76,0,0,1,21.74,21.73V426c0,35.28-9.9,62.68-29.43,81.44-19.2,18.43-39.07,25.4-73.28,25.73Z" transform="translate(-66.07 -55)"/><path class="cls-2" d="M1208.69,260.12a13.73,13.73,0,0,1,13.74,13.73V426c0,33.93-9.78,59.15-27,75.67s-35,23.19-67.82,23.5H1127c-16.33,0-32.82-5.53-47.89-11.62-12.06-4.87-22.64-12.69-30-18.79-5.63-4.7-7.06-8.07-3.51-14.49l14.1-14.11c3.77-3.76,6.59-7.54,10-7.54a6.87,6.87,0,0,1,4.34,1.88c4,3.29,10.75,8.94,18.06,12.66,9.87,5,18,7.86,30.65,8.72,2.43.17,4.69.25,6.82.25,13.46,0,21.22-3.31,29.2-9.69,13.15-10.54,13.46-30.3,13.46-30.3-16.16,7.45-27,9.5-39.48,9.5-3.6,0-7.33-.17-11.37-.44a88.82,88.82,0,0,1-53-25.29c-13-12.74-23.26-33.48-25.17-61.14V273.85A13.73,13.73,0,0,1,1057,260.12h22.69a13.73,13.73,0,0,1,13.74,13.73V362.5c1.06,24.24,19.52,39.36,39.47,39.36a39.36,39.36,0,0,0,28.56-12.28c8-8.21,12.13-19.2,10.79-37.51V273.85A13.73,13.73,0,0,1,1186,260.12h22.69m0-16H1186a29.76,29.76,0,0,0-29.73,29.73v78.81l0,.58c1.12,15.3-2.58,21.33-6.34,25.21a23.43,23.43,0,0,1-17.06,7.41c-11.07,0-22.64-8.16-23.47-23.75V273.85a29.72,29.72,0,0,0-29.74-29.73H1057a29.76,29.76,0,0,0-29.73,29.73v91.5l0,.55c2,29.22,12.65,54.6,30,71.49q3.27,3.19,6.71,6.05c-6.41,1.82-10.76,6.39-13.87,9.66-.61.63-1.17,1.22-1.73,1.78L1034.28,469l-1.6,1.6-1.09,2c-1.42,2.57-5.73,10.38-3.1,19.89,1.9,6.88,6.54,11.42,10.37,14.62,11.62,9.68,23.13,16.86,34.21,21.34,15.65,6.32,34.29,12.78,53.88,12.78h.84c36.06-.34,58.13-8.19,78.74-28a97.34,97.34,0,0,0,23.89-37.37c5.31-14.58,8-31.35,8-49.84V273.85a29.72,29.72,0,0,0-29.74-29.73Z" transform="translate(-66.07 -55)"/></g><g id="smiler"><ellipse class="cls-2" cx="732.31" cy="299.03" rx="40.18" ry="41.77"/><g id="g14"><g id="g24"><path id="path26" class="cls-5" d="M828.71,343.7c-.17-.39-4.33-9.53-12.88-9.53s-12.71,9.14-12.88,9.53a1.44,1.44,0,0,0,.42,1.71,1.46,1.46,0,0,0,1.76,0s3.65-2.61,10.7-2.61,10.62,2.55,10.7,2.61a1.46,1.46,0,0,0,1.76,0,1.45,1.45,0,0,0,.42-1.72" transform="translate(-66.07 -55)"/></g><g id="g28"><path id="path30" class="cls-5" d="M794,343.7c-.17-.39-4.33-9.53-12.88-9.53s-12.7,9.14-12.88,9.53a1.45,1.45,0,0,0,2.18,1.75s3.65-2.61,10.7-2.61,10.62,2.55,10.7,2.61a1.45,1.45,0,0,0,.86.28,1.44,1.44,0,0,0,1.32-2" transform="translate(-66.07 -55)"/></g><g id="g32"><path id="path34" class="cls-5" d="M798.49,355.85c-10.47,0-17.42-1.22-26-2.89-2-.38-5.78,0-5.78,5.78,0,11.56,13.28,26,31.79,26s31.79-14.44,31.79-26c0-5.78-3.82-6.16-5.78-5.78-8.59,1.67-15.54,2.89-26,2.89" transform="translate(-66.07 -55)"/></g></g></g></svg>