<svg id="Logo" xmlns="http://www.w3.org/2000/svg" viewBox="0 0 610.52 219.46"><defs><style>.cls-1{fill:#e8e8e8;}</style></defs><title>logo-text-light</title><g id="cliply"><path class="cls-1" d="M227.42,291.1a58.72,58.72,0,0,1-23.64-21.76,63,63,0,0,1,0-63.18,58.72,58.72,0,0,1,23.64-21.76q15.14-7.85,34.13-7.84,18.78,0,32.81,7.84a46.79,46.79,0,0,1,15.57,13.8,8.84,8.84,0,0,1-3.07,12.88l-12.18,6.55A8.59,8.59,0,0,1,284,215.3q-8.73-10.47-22.69-10.47-13.47,0-22.31,8.84t-8.84,24.08q0,15.24,8.84,24.08t22.31,8.84q14.13,0,22.74-10.44a8.77,8.77,0,0,1,11-2.1l11.79,6.42a8.84,8.84,0,0,1,3,12.93A48.51,48.51,0,0,1,294.36,291q-14,8-32.81,7.95Q242.56,298.94,227.42,291.1Z" transform="translate(-195.28 -129.05)"/><path class="cls-1" d="M346.33,132.22H365.5a8.82,8.82,0,0,1,8.83,8.82v148a8.82,8.82,0,0,1-8.83,8.82H346.33a8.82,8.82,0,0,1-8.82-8.82V141A8.82,8.82,0,0,1,346.33,132.22Z" transform="translate(-195.28 -129.05)"/><path class="cls-1" d="M415.36,178.24h14.58a8.82,8.82,0,0,1,8.82,8.82v102a8.82,8.82,0,0,1-8.82,8.82H415.36a8.82,8.82,0,0,1-8.82-8.82v-102A8.82,8.82,0,0,1,415.36,178.24Z" transform="translate(-195.28 -129.05)"/><circle class="cls-1" cx="227.37" cy="17.26" r="17.26"/><path class="cls-1" d="M592.59,237.75a48.12,48.12,0,0,0-.85-11.28c-4.92-28.23-27.45-48.69-56-48.69a60.76,60.76,0,0,0-32,8.7c-.2.21-.41.36-.61.58a8.82,8.82,0,0,0-8.82-8.82H479.8a8.82,8.82,0,0,0-8.83,8.82V330.5a8.82,8.82,0,0,0,8.83,8.82h14.59a8.82,8.82,0,0,0,8.82-8.82l0-40.51c7.89,5.36,16.27,7.52,31.21,7.19,18.75-.41,32-5.3,43.73-18.88C589.13,265.72,592.59,252.7,592.59,237.75Zm-37.37,24.7q-8.51,9-21.76,8.95t-21.76-8.95q-8.51-8.94-8.51-24t8.51-24q8.49-9,21.76-9t21.76,9c5.66,6,9.11,13.95,9.11,24S560.88,256.49,555.22,262.45Z" transform="translate(-195.28 -129.05)"/><path class="cls-1" d="M630.52,132.22H649.7a8.82,8.82,0,0,1,8.82,8.82v148a8.82,8.82,0,0,1-8.82,8.82H630.52a8.82,8.82,0,0,1-8.82-8.82V141A8.82,8.82,0,0,1,630.52,132.22Z" transform="translate(-195.28 -129.05)"/><path class="cls-1" d="M740.92,301a57.06,57.06,0,0,1-34-16.25c-8.39-8.19-14.94-21.5-16.17-39.27V187.06a8.82,8.82,0,0,1,8.82-8.82h14.57a8.82,8.82,0,0,1,8.82,8.82V244c.68,15.57,12.54,25.28,25.35,25.28a25.25,25.25,0,0,0,18.34-7.88c5.11-5.28,7.8-12.34,6.94-24.09V187.06a8.82,8.82,0,0,1,8.82-8.82H797a8.82,8.82,0,0,1,8.82,8.82V284.8c0,21.8-6.28,38-17.32,48.61S766,348.3,744.91,348.5c-10.63.11-21.38-3.49-31.19-7.46-7.75-3.13-14.55-8.15-19.24-12.07-3.62-3-4.53-5.18-2.26-9.31l9.06-9.06c3.35-3.34,5.53-6.7,9.23-3.64a65.16,65.16,0,0,0,11.61,8.13,46.2,46.2,0,0,0,19.68,5.61c11.46.78,17.21-1.32,23.13-6.07,8.45-6.77,8.65-19.46,8.65-19.46C760.21,301.34,752.5,301.74,740.92,301Z" transform="translate(-195.28 -129.05)"/></g></svg>