<?xml version="1.0" encoding="utf-8"?>
<!-- Generator: Adobe Illustrator 19.0.0, SVG Export Plug-In . SVG Version: 6.00 Build 0)  -->
<svg version="1.1" id="Layer_1" xmlns="http://www.w3.org/2000/svg" xmlns:xlink="http://www.w3.org/1999/xlink" x="0px" y="0px"
	 viewBox="0 0 475 475" enable-background="new 0 0 475 475" xml:space="preserve">
<rect id="XMLID_244_" x="-3.04" y="-1.57" display="none" fill="#1E1F24" width="475" height="475"/>
<g id="XMLID_237_">
	<path id="XMLID_61_" fill="#24292E" d="M234.46,426.74c-37.4,0-75.32-1.93-112.72-5.75c-33.76-3.73-65.3-35.37-68.95-69.09
		c-7.63-76.48-7.63-153.96-0.01-230.38c3.66-33.79,35.2-65.43,68.89-69.15c37.46-3.82,75.39-5.76,112.79-5.76
		s75.32,1.94,112.72,5.75c33.76,3.73,65.3,35.37,68.95,69.09c7.64,76.48,7.64,153.97,0.01,230.38
		c-3.66,33.79-35.2,65.42-68.89,69.15C309.78,424.81,271.85,426.74,234.46,426.74z"/>
	<g id="XMLID_57_">
		<path id="XMLID_58_" fill="#33CC99" d="M234.46,54.62c37.3,0,74.6,1.9,111.91,5.71c30.07,3.32,58.56,31.93,61.81,61.99
			c7.61,76.24,7.61,152.48,0,228.72c-3.25,30.07-31.74,58.67-61.81,61.99c-37.3,3.81-74.6,5.71-111.91,5.71s-74.6-1.9-111.91-5.71
			c-30.07-3.32-58.56-31.93-61.81-61.99c-7.61-76.24-7.61-152.48,0-228.72c3.25-30.07,31.74-58.67,61.81-61.99
			C159.85,56.52,197.15,54.62,234.46,54.62 M234.46,38.62c-37.67,0-75.87,1.95-113.53,5.79l-0.07,0.01l-0.07,0.01
			C102.64,46.43,84.69,55.51,70.25,70c-14.43,14.48-23.46,32.45-25.42,50.6l-0.01,0.07l-0.01,0.07c-7.68,76.94-7.68,154.96,0,231.9
			l0.01,0.07l0.01,0.07c1.96,18.15,10.99,36.12,25.42,50.6c14.44,14.49,32.39,23.57,50.54,25.58l0.07,0.01l0.07,0.01
			c37.67,3.84,75.86,5.79,113.53,5.79s75.87-1.95,113.53-5.79l0.07-0.01l0.07-0.01c18.15-2.01,36.1-11.09,50.54-25.58
			c14.43-14.48,23.46-32.45,25.42-50.6l0.01-0.07l0.01-0.07c7.68-76.94,7.68-154.96,0-231.9l-0.01-0.07l-0.01-0.07
			c-1.96-18.15-10.99-36.12-25.42-50.6c-14.44-14.49-32.39-23.57-50.54-25.58l-0.07-0.01l-0.07-0.01
			C310.32,40.56,272.12,38.62,234.46,38.62L234.46,38.62z"/>
	</g>
</g>
<path id="XMLID_236_" display="none" fill="#24292E" stroke="#2E7794" stroke-width="12" stroke-linecap="round" stroke-miterlimit="10" d="
	M381.23,339.43c-64.22,55.26-109,41.86-138.38,17.33c-23.95-19.99-41.45-39.48-71.88-42c-35.85-2.97-65.64,25.51-85.18,50"/>
<line id="XMLID_1323_" fill="none" stroke="#2E7794" stroke-width="13" stroke-linecap="round" stroke-miterlimit="10" x1="116.78" y1="121.29" x2="357.92" y2="362.42"/>
<line id="XMLID_1291_" fill="#24AFC4" stroke="#24AFC4" stroke-width="24" stroke-miterlimit="10" x1="141.5" y1="146" x2="340.01" y2="344.51"/>
<path id="XMLID_1192_" fill="#24AFC4" d="M323.04,358.25l-8.1-30.27c-1.4-5.17,3.34-9.91,8.54-8.54l30.27,8.1
	c5.17,1.4,6.92,7.85,3.12,11.66l-22.17,22.17C330.92,365.15,324.43,363.42,323.04,358.25z"/>
<path id="XMLID_1322_" fill="#24AFC4" d="M152.2,125.53l8.1,30.27c1.4,5.17-3.34,9.91-8.54,8.54l-30.27-8.1
	c-5.17-1.4-6.92-7.85-3.12-11.66l22.17-22.17C144.32,118.64,150.81,120.36,152.2,125.53z"/>
<ellipse id="XMLID_204_" transform="matrix(0.9952 -0.0979 0.0979 0.9952 -22.1898 25.5925)" fill="#24292E" cx="249.72" cy="238.94" rx="91.3" ry="96.5"/>
<g id="XMLID_195_">
	<path id="XMLID_55_" fill="#33CC99" d="M239.24,335.54c-15.56,0-30.25-2.84-43.65-8.43c-16.73-6.98-30.43-17.64-40.71-31.7
		c-10.28-14.06-16.27-30.67-17.83-49.38c-1.55-18.71,1.62-36.08,9.44-51.64c7.81-15.55,19.56-28.33,34.92-37.98
		c15.24-9.57,33.04-15.27,52.93-16.92c3.7-0.31,7.38-0.46,10.93-0.46c15.39,0,29.6,2.91,42.24,8.66
		c10.77,4.9,19.91,11.75,27.18,20.36c3.54,4.19,5.1,9.73,4.3,15.19c-0.82,5.5-3.95,10.4-8.61,13.42l-17.46,11.33
		c-2.97,1.92-6.4,2.94-9.93,2.94c-5.11,0-10.17-2.16-13.89-5.93c-7.47-7.58-16.21-11.27-26.69-11.27c-1.26,0-2.57,0.05-3.88,0.16
		c-11.94,0.99-21.19,5.55-28.29,13.93c-7.1,8.38-10,19.13-8.86,32.85c1.14,13.73,5.77,23.85,14.15,30.94
		c7.36,6.24,15.82,9.27,25.88,9.27c1.41,0,2.86-0.06,4.32-0.18c12.36-1.03,21.64-6.24,28.39-15.94c3.58-5.15,9.48-8.23,15.77-8.23
		c2.69,0,5.31,0.55,7.78,1.65l18.49,8.18c5.12,2.26,9,6.63,10.67,11.98c1.64,5.28,0.94,10.99-1.93,15.66
		c-5.73,9.34-13.54,17.42-23.21,24.01c-14.17,9.67-31.37,15.4-51.11,17.04C246.75,335.38,242.94,335.54,239.24,335.54z"/>
	<path id="XMLID_52_" fill="#24292E" d="M245.27,145.03c14.6,0,27.85,2.71,39.76,8.12c10,4.55,18.36,10.81,25.08,18.77
		c5.14,6.09,3.69,15.36-3,19.7l-17.46,11.33c-2.07,1.34-4.37,1.98-6.66,1.98c-3.49,0-6.98-1.47-9.61-4.14
		c-8.58-8.7-18.9-13.05-30.97-13.05c-1.44,0-2.89,0.06-4.38,0.18c-13.48,1.12-24.28,6.47-32.38,16.04
		c-8.11,9.57-11.52,21.98-10.26,37.23c1.27,15.25,6.68,26.93,16.26,35.03c8.41,7.12,18.33,10.68,29.76,10.68
		c1.58,0,3.18-0.07,4.82-0.2c14.12-1.17,25.06-7.33,32.82-18.49c2.53-3.64,6.63-5.66,10.84-5.66c1.8,0,3.62,0.37,5.35,1.13
		l18.49,8.18c7.31,3.23,10.23,12.21,6.05,19.02c-5.31,8.66-12.47,16.05-21.47,22.19c-13.37,9.12-29.45,14.46-48.23,16.02
		c-3.67,0.31-7.29,0.46-10.84,0.46c-14.83,0-28.61-2.65-41.34-7.97c-15.79-6.59-28.51-16.49-38.17-29.7
		c-9.66-13.21-15.22-28.66-16.69-46.34c-1.47-17.67,1.47-33.83,8.82-48.45s18.27-26.49,32.75-35.59
		c14.48-9.1,31.22-14.44,50.23-16.02C238.39,145.18,241.87,145.03,245.27,145.03 M245.27,133.03c-3.72,0-7.56,0.16-11.43,0.48
		c-20.85,1.73-39.56,7.72-55.62,17.82c-16.3,10.24-28.78,23.82-37.09,40.36c-8.32,16.56-11.71,35.01-10.06,54.83
		c1.65,19.83,8.03,37.47,18.96,52.43c10.93,14.95,25.48,26.29,43.24,33.7c14.14,5.9,29.6,8.89,45.96,8.89
		c3.87,0,7.85-0.17,11.84-0.5c20.79-1.73,38.96-7.8,54-18.06c10.37-7.07,18.76-15.76,24.94-25.83c3.78-6.15,4.7-13.65,2.55-20.59
		c-2.18-7-7.27-12.72-13.97-15.68l-18.49-8.18c-3.24-1.43-6.67-2.16-10.21-2.16c-8.26,0-15.99,4.04-20.7,10.81
		c-5.73,8.25-13.35,12.5-23.96,13.38c-1.3,0.11-2.59,0.16-3.83,0.16c-8.58,0-15.77-2.56-22-7.84c-7.11-6.02-11.05-14.8-12.05-26.86
		c-1-12.06,1.44-21.37,7.46-28.48c6.02-7.11,13.94-10.98,24.21-11.83c1.15-0.1,2.29-0.14,3.39-0.14c8.8,0,16.13,3.1,22.42,9.48
		c4.84,4.91,11.46,7.72,18.16,7.72c4.69,0,9.25-1.35,13.2-3.91l17.46-11.33c6.1-3.96,10.21-10.36,11.28-17.57
		c1.06-7.16-1-14.43-5.65-19.94c-7.85-9.3-17.7-16.68-29.28-21.96C276.57,136.12,261.53,133.03,245.27,133.03L245.27,133.03z"/>
</g>
<g id="XMLID_169_" display="none">
	<path id="XMLID_50_" display="inline" fill="#33CC99" d="M104.2,293.11c-5.76,0-10.45-4.69-10.45-10.45V157.7
		c0-5.76,4.69-10.45,10.45-10.45h16.19c5.76,0,10.45,4.69,10.45,10.45v124.97c0,5.76-4.69,10.45-10.45,10.45H104.2z"/>
	<path id="XMLID_47_" display="inline" fill="#24292E" d="M120.38,150.25c4.11,0,7.45,3.33,7.45,7.45v124.97
		c0,4.11-3.33,7.45-7.45,7.45H104.2c-4.11,0-7.45-3.33-7.45-7.45V157.7c0-4.11,3.33-7.45,7.45-7.45H120.38 M120.38,144.25H104.2
		c-7.41,0-13.45,6.03-13.45,13.45v124.97c0,7.41,6.03,13.45,13.45,13.45h16.19c7.41,0,13.45-6.03,13.45-13.45V157.7
		C133.83,150.29,127.8,144.25,120.38,144.25L120.38,144.25z"/>
</g>
<g id="XMLID_149_" display="none">
	<path id="XMLID_45_" display="inline" fill="#33CC99" d="M162.47,293.11c-5.76,0-10.45-4.69-10.45-10.45v-86.12
		c0-5.76,4.69-10.45,10.45-10.45h12.3c5.76,0,10.45,4.69,10.45,10.45v86.12c0,5.76-4.69,10.45-10.45,10.45H162.47z"/>
	<path id="XMLID_34_" display="inline" fill="#24292E" d="M174.77,189.1c4.11,0,7.45,3.33,7.45,7.45v86.12
		c0,4.11-3.33,7.45-7.45,7.45h-12.3c-4.11,0-7.45-3.33-7.45-7.45v-86.12c0-4.11,3.33-7.45,7.45-7.45H174.77 M174.77,183.1h-12.3
		c-7.41,0-13.45,6.03-13.45,13.45v86.12c0,7.41,6.03,13.45,13.45,13.45h12.3c7.41,0,13.45-6.03,13.45-13.45v-86.12
		C188.22,189.14,182.19,183.1,174.77,183.1L174.77,183.1z"/>
</g>
<g id="XMLID_143_" display="none">
	<path id="XMLID_22_" display="inline" fill="#33CC99" d="M168.62,179.72c-9.69,0-17.57-7.88-17.57-17.57s7.88-17.57,17.57-17.57
		s17.57,7.88,17.57,17.57S178.31,179.72,168.62,179.72z"/>
	<path id="XMLID_13_" display="inline" fill="#24292E" d="M168.62,147.58c8.05,0,14.57,6.52,14.57,14.57s-6.52,14.57-14.57,14.57
		c-8.05,0-14.57-6.52-14.57-14.57S160.57,147.58,168.62,147.58 M168.62,141.58c-11.34,0-20.57,9.23-20.57,20.57
		c0,11.34,9.23,20.57,20.57,20.57s20.57-9.23,20.57-20.57C189.2,150.81,179.97,141.58,168.62,141.58L168.62,141.58z"/>
</g>
<g id="XMLID_109_" display="none">
	<path id="XMLID_42_" display="inline" fill="#33CC99" d="M216.86,328.08c-5.76,0-10.45-4.69-10.45-10.45V196.55
		c0-5.76,4.69-10.45,10.45-10.45h12.3c4.07,0,7.6,2.34,9.32,5.74c7.66-4.02,16.44-6.12,25.61-6.12c25.09,0,45.74,17.92,50.21,43.58
		c0.76,4.15,0.76,5.66,0.76,9.71v0.33c0,14.8-3.99,25.97-12.95,36.21c-9.93,11.5-21.63,16.58-39.1,16.96
		c-0.85,0.02-1.67,0.03-2.47,0.03c-8.92,0-15.26-1.13-20.94-3.89l0.01,28.98c0,5.76-4.69,10.45-10.45,10.45L216.86,328.08z
		 M262.16,215.17c-6.66,0-11.96,2.17-16.19,6.62c-4.27,4.5-6.35,10.44-6.35,18.17s2.08,13.67,6.35,18.17
		c4.23,4.46,9.53,6.62,16.19,6.62c6.66,0,11.96-2.17,16.19-6.62c4.55-4.79,6.86-10.9,6.86-18.17c0-7.26-2.31-13.37-6.86-18.17
		C274.12,217.34,268.82,215.17,262.16,215.17z"/>
	<path id="XMLID_37_" display="inline" fill="#24292E" d="M264.1,188.72c24.08,0,43.1,17.27,47.26,41.1
		c0.73,4.01,0.71,5.26,0.71,9.52c0,12.62-2.92,23.61-12.2,34.23c-9.89,11.46-21.09,15.59-36.91,15.94
		c-0.83,0.02-1.63,0.03-2.41,0.03c-11.13,0-17.71-1.87-23.94-6.1l0.01,34.19c0,4.11-3.33,7.45-7.45,7.45l-12.32,0
		c-4.11,0-7.45-3.33-7.45-7.45V196.55c0-4.11,3.33-7.45,7.45-7.45h12.3c4.11,0,7.45,3.33,7.45,7.45c0.16-0.18,0.35-0.31,0.52-0.49
		C244.98,191.24,254.21,188.72,264.1,188.72 M262.16,267.74c7.46,0,13.58-2.52,18.37-7.55c4.78-5.03,7.69-11.78,7.69-20.23
		c0-8.45-2.91-15.2-7.69-20.23c-4.79-5.03-10.91-7.55-18.37-7.55c-7.46,0-13.58,2.52-18.37,7.55c-4.79,5.03-7.18,11.78-7.18,20.23
		c0,8.46,2.39,15.2,7.18,20.23C248.57,265.22,254.7,267.74,262.16,267.74 M264.1,182.72c-8.7,0-17.09,1.81-24.58,5.27
		c-2.47-2.98-6.2-4.88-10.36-4.88h-12.3c-7.41,0-13.45,6.03-13.45,13.45v121.08c0,7.41,6.03,13.45,13.45,13.45l12.32,0
		c7.41,0,13.45-6.03,13.45-13.45l-0.01-24.54c5.04,1.7,10.76,2.44,17.93,2.44c0.82,0,1.67-0.01,2.54-0.03
		c18.41-0.41,30.77-5.79,41.32-18.02c9.44-10.8,13.66-22.57,13.66-38.15l0-0.32c0-4.12,0-5.83-0.81-10.27
		C312.54,201.66,290.68,182.72,264.1,182.72L264.1,182.72z M262.16,261.74c-5.8,0-10.38-1.86-14.02-5.69
		c-3.72-3.91-5.53-9.18-5.53-16.1s1.81-12.19,5.53-16.1c3.64-3.83,8.22-5.69,14.02-5.69c5.8,0,10.38,1.86,14.02,5.69
		c4.01,4.22,6.04,9.63,6.04,16.1c0,6.47-2.03,11.88-6.04,16.1C272.54,259.88,267.95,261.74,262.16,261.74L262.16,261.74z"/>
</g>
<g id="XMLID_88_" display="none">
	<path id="XMLID_26_" display="inline" fill="#33CC99" d="M344.09,293.11c-5.76,0-10.45-4.69-10.45-10.45V157.7
		c0-5.76,4.69-10.45,10.45-10.45h16.19c5.76,0,10.45,4.69,10.45,10.45v124.97c0,5.76-4.69,10.45-10.45,10.45H344.09z"/>
	<path id="XMLID_23_" display="inline" fill="#24292E" d="M360.28,150.25c4.11,0,7.45,3.33,7.45,7.45v124.97
		c0,4.11-3.33,7.45-7.45,7.45h-16.19c-4.11,0-7.45-3.33-7.45-7.45V157.7c0-4.11,3.33-7.45,7.45-7.45H360.28 M360.28,144.25h-16.19
		c-7.41,0-13.45,6.03-13.45,13.45v124.97c0,7.41,6.03,13.45,13.45,13.45h16.19c7.41,0,13.45-6.03,13.45-13.45V157.7
		C373.73,150.29,367.69,144.25,360.28,144.25L360.28,144.25z"/>
</g>
<g id="XMLID_63_" display="none">
	<path id="XMLID_21_" display="inline" fill="#33CC99" d="M440.28,335.83c-9.65,0-19.11-3.3-27.08-6.52
		c-5.46-2.21-11.19-5.79-17.04-10.67c-3.05-2.55-5.75-5.92-2.61-11.61l0.21-0.37l7.95-7.95c0.36-0.36,0.7-0.72,1.03-1.06
		c1.83-1.92,3.72-3.9,6.53-3.9c1.46,0,2.9,0.57,4.26,1.71l0.12,0.1c2.07,1.71,5.52,4.57,9.11,6.4c4.84,2.46,8.93,3.97,15.46,4.41
		c1.24,0.08,2.41,0.13,3.49,0.13c6.88,0,10.32-1.69,13.96-4.6c3.08-2.47,4.63-6.22,5.4-9.23c-6.14,2.34-11.42,3.3-17.63,3.3
		c-1.83,0-3.79-0.07-6.35-0.24l-0.15-0.01c-11.69-1.33-21.94-6.23-30.47-14.55c-8.38-8.18-13.55-20.64-14.54-35.08l-0.01-0.1
		l0-49.42c0-5.76,4.69-10.45,10.45-10.45h12.3c2.79,0,5.41,1.09,7.39,3.06c1.97,1.97,3.06,4.6,3.06,7.39l0,47.99
		c0.56,12.08,9.67,18.41,18.4,18.41c5.08,0,9.69-1.99,13.33-5.74c4.07-4.21,5.62-9.77,5.02-18.03l-0.01-0.11l0-42.52
		c0-5.76,4.69-10.45,10.45-10.45h12.3c5.76,0,10.45,4.69,10.45,10.45l0,82.5c0,18.75-5.23,33.29-15.55,43.19
		c-10.13,9.73-20.65,13.41-38.81,13.58L440.28,335.83z"/>
	<path id="XMLID_18_" display="inline" fill="#24292E" d="M484.6,189.1c4.11,0,7.45,3.33,7.45,7.45l0,82.5
		c0,18.4-5.3,32.07-14.62,41.03c-9.32,8.95-18.99,12.57-36.77,12.74c-0.12,0-0.25,0-0.37,0c-8.85,0-17.79-3-25.96-6.3
		c-6.54-2.64-12.27-6.88-16.24-10.19c-3.05-2.55-3.83-4.37-1.91-7.85l7.65-7.65c2.04-2.04,3.57-4.09,5.44-4.09
		c0.72,0,1.48,0.3,2.35,1.02c2.15,1.78,5.83,4.85,9.79,6.86c5.35,2.72,9.77,4.27,16.62,4.73c1.32,0.09,2.55,0.13,3.7,0.13
		c7.3,0,11.51-1.79,15.83-5.26c7.13-5.71,7.3-16.43,7.3-16.43c-8.76,4.04-14.64,5.15-21.4,5.15c-1.95,0-3.97-0.09-6.16-0.23
		c-5.33-0.61-17.41-2.68-28.72-13.72c-7.08-6.91-12.61-18.15-13.65-33.14l0-49.31c0-4.11,3.33-7.45,7.45-7.45h12.3
		c4.11,0,7.45,3.33,7.45,7.45l0,48.06c0.57,13.14,10.58,21.34,21.4,21.34c6.05,0,11.44-2.49,15.48-6.66
		c4.31-4.45,6.58-10.41,5.85-20.33l0-42.41c0-4.11,3.33-7.45,7.45-7.45H484.6 M484.6,183.1h-12.3c-7.41,0-13.45,6.03-13.45,13.45
		l0,42.41v0.22l0.02,0.22c0.68,9.34-1.73,13.19-4.18,15.72c-3.06,3.16-6.92,4.83-11.17,4.83c-7.29,0-14.9-5.32-15.4-15.48l0-47.92
		c0-3.59-1.4-6.97-3.94-9.51s-5.92-3.94-9.51-3.94h-12.3c-7.41,0-13.45,6.03-13.45,13.45l0,49.31v0.21l0.01,0.21
		c1.05,15.18,6.53,28.33,15.44,37.03c9.02,8.8,19.86,13.98,32.23,15.38l0.15,0.02l0.15,0.01c2.64,0.17,4.66,0.25,6.55,0.25
		c4.34,0,8.24-0.44,12.25-1.44c-0.54,0.76-1.17,1.45-1.9,2.03c-3.19,2.55-6.06,3.94-12.08,3.94c-1.01,0-2.11-0.04-3.29-0.12
		c-6.06-0.41-9.7-1.76-14.31-4.1c-3.29-1.67-6.59-4.4-8.56-6.03l-0.13-0.1c-1.92-1.59-4-2.4-6.18-2.4c-4.1,0-6.76,2.79-8.71,4.83
		c-0.31,0.33-0.64,0.67-0.98,1.01l-7.65,7.65l-0.6,0.6l-0.41,0.74c-4.76,8.63,1.32,13.7,3.32,15.36
		c6.08,5.07,12.09,8.82,17.83,11.15c8.25,3.33,18.05,6.74,28.21,6.74l0.43,0c18.79-0.18,30.24-4.22,40.86-14.42
		c10.93-10.49,16.47-25.75,16.47-45.35l0-82.5c0-3.59-1.4-6.97-3.94-9.51S488.19,183.1,484.6,183.1L484.6,183.1z"/>
</g>
<g id="g14_1_">
	<g id="g24_1_" transform="translate(29.457,19.2031)">
		<path id="path26_1_" fill="#24AFC4" d="M238.65,199.43c-0.24-0.34-6.01-8.26-14.18-6.58c-8.17,1.68-10.35,11.22-10.44,11.63
			c-0.14,0.62,0.17,1.26,0.73,1.55c0.56,0.29,1.26,0.16,1.7-0.31c0.03-0.03,2.97-3.21,9.71-4.59c6.7-1.37,10.65,0.35,10.73,0.39
			c0.28,0.13,0.59,0.16,0.88,0.1c0.3-0.06,0.59-0.23,0.8-0.48C239,200.66,239.03,199.95,238.65,199.43"/>
	</g>
	<g id="g28_1_" transform="translate(17.457,19.2031)">
		<path id="path30_1_" fill="#24AFC4" d="M217.51,206.23c-0.24-0.34-6.01-8.26-14.18-6.58c-8.17,1.68-10.35,11.22-10.44,11.63
			c-0.14,0.62,0.17,1.26,0.73,1.55c0.57,0.29,1.26,0.16,1.69-0.31c0.03-0.03,2.97-3.21,9.72-4.59c6.7-1.37,10.65,0.35,10.73,0.39
			c0.28,0.13,0.59,0.16,0.88,0.1c0.3-0.06,0.59-0.23,0.8-0.48C217.86,207.46,217.88,206.75,217.51,206.23"/>
	</g>
	<g id="g32_1_" transform="translate(19,15)">
		<path id="path34_1_" fill="#24AFC4" d="M222.61,221.17c-10.01,2.05-16.88,2.25-25.42,2.34c-1.95,0.02-5.52,1.13-4.39,6.66
			c2.27,11.05,17.79,22.25,35.48,18.62c17.69-3.63,27.55-20.04,25.28-31.09c-1.13-5.52-4.86-5.14-6.66-4.39
			C239.02,216.59,232.62,219.11,222.61,221.17"/>
	</g>
	<g id="g36_1_" transform="translate(10,14)">
		<path id="path38_1_" fill="#24AFC4" d="M207.32,230.03c0,0,8.85,1.06,25.42-2.34s24.29-7.86,24.29-7.86s-3.26,12.18-22.59,16.15
			C215.11,239.94,207.32,230.03,207.32,230.03"/>
	</g>
</g>
</svg>
