<?xml version="1.0" encoding="utf-8"?>
<!-- Generator: Adobe Illustrator 19.0.0, SVG Export Plug-In . SVG Version: 6.00 Build 0)  -->
<svg version="1.1" id="Logo" xmlns="http://www.w3.org/2000/svg" xmlns:xlink="http://www.w3.org/1999/xlink" x="0px" y="0px"
	 viewBox="0 0 1000 475" enable-background="new 0 0 1000 475" xml:space="preserve">
<g id="BG">
	<rect id="XMLID_1406_" display="none" fill="#1E1F24" width="1000" height="475"/>
	<g id="XMLID_1399_">
		<path id="XMLID_1405_" fill="#24292E" d="M506.61,425.96c-130.23,0-262.29-5.32-392.52-15.8c-22.82-1.84-41.46-18.85-45.34-41.38
			c-15.48-89.94-15.48-181.16,0-271.1c3.88-22.53,22.52-39.54,45.34-41.38c130.23-10.49,262.29-15.8,392.52-15.8
			c130.23,0,262.29,5.32,392.52,15.8c22.82,1.84,41.46,18.85,45.34,41.38c15.48,89.95,15.48,181.16,0,271.1
			c-3.88,22.53-22.52,39.54-45.34,41.38C768.9,420.65,636.83,425.96,506.61,425.96z"/>
		<g id="XMLID_1401_">
			<path id="XMLID_1402_" fill="#33CC99" d="M506.61,46.5c130.68,0,261.36,5.26,392.04,15.78c20.04,1.61,36.49,16.6,39.9,36.42
				c15.44,89.69,15.44,179.38,0,269.07c-3.41,19.81-19.86,34.8-39.9,36.42c-130.68,10.52-261.36,15.78-392.04,15.78
				s-261.36-5.26-392.04-15.78c-20.04-1.61-36.49-16.6-39.9-36.42c-15.44-89.69-15.44-179.38,0-269.07
				c3.41-19.81,19.86-34.8,39.9-36.42C245.25,51.76,375.93,46.5,506.61,46.5 M506.61,34.5c-130.39,0-262.61,5.32-393,15.82
				c-25.55,2.06-46.42,21.11-50.77,46.34c-7.8,45.31-11.75,91.25-11.75,136.57s3.95,91.26,11.75,136.57
				c4.34,25.23,25.22,44.28,50.77,46.34c130.39,10.5,262.61,15.82,393,15.82s262.61-5.32,393-15.82
				c25.55-2.06,46.42-21.11,50.77-46.34c7.8-45.31,11.75-91.25,11.75-136.57s-3.95-91.26-11.75-136.57
				c-4.34-25.23-25.22-44.28-50.77-46.34C769.22,39.82,637,34.5,506.61,34.5L506.61,34.5z"/>
		</g>
	</g>
	
		<path id="XMLID_115_" display="none" fill="#24292E" stroke="#2E7794" stroke-width="12" stroke-linecap="round" stroke-miterlimit="10" d="
		M809,341c-135.2,55.26-229.48,41.86-291.33,17.33c-50.41-19.99-87.26-39.48-151.33-42c-75.47-2.97-138.18,25.51-179.33,50"/>
	<g id="Bend_Guides" display="none">
	</g>
</g>
<g id="Scrubber">
	
		<line id="XMLID_2386_" fill="none" stroke="#2E7794" stroke-width="13" stroke-linecap="round" stroke-miterlimit="10" x1="106.67" y1="237.5" x2="891.72" y2="237.5"/>
	
		<line id="XMLID_2385_" fill="#24AFC4" stroke="#24AFC4" stroke-width="24" stroke-miterlimit="10" x1="151" y1="237.5" x2="847.38" y2="237.5"/>
	<path id="XMLID_1533_" fill="#24AFC4" d="M859.33,262.47l-32.14-18.57c-5.5-3.16-5.5-11.1,0-14.31l32.14-18.57
		c5.5-3.16,12.38,0.78,12.38,7.15v37.14C871.71,261.65,864.83,265.64,859.33,262.47z"/>
	<path id="XMLID_2397_" fill="#24AFC4" d="M145.56,211.78l32.14,18.57c5.5,3.16,5.5,11.1,0,14.31l-32.14,18.57
		c-5.5,3.16-12.38-0.78-12.38-7.15v-37.14C133.18,212.6,140.05,208.61,145.56,211.78z"/>
</g>
<g id="cliply">
	<g id="XMLID_2488_">
		<path id="XMLID_50_" fill="#33CC99" d="M261.55,301.94c-13.1,0-25.05-2.75-35.51-8.18c-10.53-5.46-18.88-13.15-24.82-22.86
			c-5.94-9.71-8.94-20.87-8.94-33.16c0-12.29,3.01-23.44,8.94-33.15c5.93-9.71,14.28-17.4,24.82-22.86
			c10.47-5.43,22.42-8.18,35.51-8.18c12.98,0,24.5,2.77,34.27,8.22c6.73,3.76,12.3,8.7,16.55,14.69c1.95,2.74,2.62,6.2,1.85,9.49
			c-0.78,3.32-2.94,6.15-5.94,7.76l-12.18,6.54c-1.64,0.88-3.41,1.33-5.26,1.33c-3.47,0-6.8-1.6-9.12-4.38
			c-5.27-6.31-11.94-9.38-20.39-9.38c-8.23,0-14.84,2.6-20.19,7.96c-5.35,5.35-7.96,12.54-7.96,21.96c0,9.42,2.6,16.61,7.96,21.96
			c5.35,5.36,11.96,7.96,20.19,7.96c8.55,0,15.23-3.06,20.43-9.35c2.24-2.71,5.55-4.27,9.07-4.27c1.96,0,3.92,0.5,5.64,1.44
			l11.79,6.43c3.01,1.64,5.17,4.51,5.92,7.87c0.74,3.31,0.02,6.76-1.97,9.47c-4.23,5.76-9.73,10.58-16.37,14.35
			C286.08,299.13,274.54,301.94,261.55,301.94z"/>
		<path id="XMLID_47_" fill="#24292E" d="M261.55,176.56c12.51,0,23.45,2.62,32.81,7.84c6.37,3.56,11.56,8.16,15.57,13.81
			c3.07,4.31,1.6,10.37-3.07,12.88l-12.18,6.54c-1.23,0.66-2.54,0.97-3.84,0.97c-2.55,0-5.06-1.2-6.82-3.3
			c-5.82-6.97-13.39-10.46-22.69-10.46c-8.99,0-16.43,2.95-22.31,8.84c-5.89,5.89-8.84,13.92-8.84,24.08
			c0,10.16,2.94,18.19,8.84,24.08c5.89,5.89,13.33,8.84,22.31,8.84c9.41,0,16.99-3.48,22.74-10.44c1.71-2.07,4.21-3.18,6.76-3.18
			c1.43,0,2.88,0.35,4.21,1.07l11.79,6.43c4.66,2.54,6.1,8.64,2.96,12.92c-3.99,5.44-9.14,9.94-15.43,13.51
			c-9.35,5.3-20.29,7.95-32.81,7.95c-12.67,0-24.05-2.61-34.13-7.84c-10.09-5.23-17.97-12.48-23.64-21.76
			c-5.67-9.28-8.5-19.81-8.5-31.59c0-11.78,2.83-22.31,8.5-31.59c5.67-9.28,13.55-16.53,23.64-21.76
			C237.51,179.17,248.89,176.56,261.55,176.56 M261.55,170.56c-13.58,0-25.99,2.87-36.89,8.52c-11.03,5.72-19.78,13.78-26,23.96
			c-6.23,10.19-9.38,21.87-9.38,34.72c0,12.85,3.16,24.53,9.38,34.72c6.23,10.19,14.97,18.25,26,23.96
			c10.89,5.65,23.31,8.51,36.89,8.51c13.51,0,25.54-2.94,35.76-8.73c7.01-3.97,12.83-9.08,17.31-15.18
			c2.5-3.41,3.41-7.74,2.48-11.89c-0.94-4.2-3.64-7.79-7.41-9.85l-11.79-6.43c-2.17-1.18-4.62-1.81-7.08-1.81
			c-4.42,0-8.58,1.95-11.39,5.36c-4.59,5.56-10.51,8.26-18.11,8.26c-7.4,0-13.31-2.32-18.07-7.08c-4.77-4.76-7.08-11.25-7.08-19.84
			c0-8.58,2.32-15.07,7.08-19.84c4.76-4.76,10.67-7.08,18.07-7.08c7.5,0,13.42,2.72,18.08,8.31c2.89,3.47,7.06,5.46,11.42,5.46
			c2.32,0,4.63-0.58,6.68-1.68l12.18-6.54c3.76-2.02,6.47-5.56,7.45-9.72c0.97-4.13,0.12-8.47-2.33-11.92
			c-4.51-6.35-10.41-11.58-17.53-15.56C287.07,173.45,275.05,170.56,261.55,170.56L261.55,170.56z"/>
	</g>
	<g id="XMLID_2520_">
		<path id="XMLID_45_" fill="#33CC99" d="M346.33,300.9c-6.52,0-11.82-5.3-11.82-11.82V141.04c0-6.52,5.3-11.82,11.82-11.82h19.18
			c6.52,0,11.82,5.3,11.82,11.82v148.04c0,6.52-5.3,11.82-11.82,11.82H346.33z"/>
		<path id="XMLID_34_" fill="#24292E" d="M365.5,132.22c4.87,0,8.82,3.95,8.82,8.82v148.04c0,4.87-3.95,8.82-8.82,8.82h-19.18
			c-4.87,0-8.82-3.95-8.82-8.82V141.04c0-4.87,3.95-8.82,8.82-8.82H365.5 M365.5,126.22h-19.18c-8.17,0-14.82,6.65-14.82,14.82
			v148.04c0,8.17,6.65,14.82,14.82,14.82h19.18c8.17,0,14.82-6.65,14.82-14.82V141.04C380.33,132.87,373.68,126.22,365.5,126.22
			L365.5,126.22z"/>
	</g>
	<g id="XMLID_2480_">
		<path id="XMLID_32_" fill="#33CC99" d="M415.36,300.9c-6.52,0-11.82-5.3-11.82-11.82V187.06c0-6.52,5.3-11.82,11.82-11.82h14.57
			c6.52,0,11.82,5.3,11.82,11.82v102.02c0,6.52-5.3,11.82-11.82,11.82H415.36z"/>
		<path id="XMLID_28_" fill="#24292E" d="M429.94,178.24c4.87,0,8.82,3.95,8.82,8.82v102.02c0,4.87-3.95,8.82-8.82,8.82h-14.57
			c-4.87,0-8.82-3.95-8.82-8.82V187.06c0-4.87,3.95-8.82,8.82-8.82H429.94 M429.94,172.24h-14.57c-8.17,0-14.82,6.65-14.82,14.82
			v102.02c0,8.17,6.65,14.82,14.82,14.82h14.57c8.17,0,14.82-6.65,14.82-14.82V187.06C444.76,178.89,438.11,172.24,429.94,172.24
			L429.94,172.24z"/>
	</g>
	<g id="XMLID_2527_">
		<path id="XMLID_2532_" fill="#33CC99" d="M422.65,166.58c-11.17,0-20.26-9.09-20.26-20.26s9.09-20.26,20.26-20.26
			s20.26,9.09,20.26,20.26S433.82,166.58,422.65,166.58z"/>
		<path id="XMLID_2529_" fill="#24292E" d="M422.65,129.05c9.53,0,17.26,7.73,17.26,17.26c0,9.53-7.73,17.26-17.26,17.26
			c-9.53,0-17.26-7.73-17.26-17.26C405.39,136.78,413.12,129.05,422.65,129.05 M422.65,123.05c-12.83,0-23.26,10.44-23.26,23.26
			s10.44,23.26,23.26,23.26s23.26-10.44,23.26-23.26S435.48,123.05,422.65,123.05L422.65,123.05z"/>
	</g>
	<g id="XMLID_2449_">
		<path id="XMLID_42_" fill="#33CC99" d="M479.8,342.32c-6.52,0-11.82-5.3-11.82-11.82V187.06c0-6.52,5.3-11.82,11.82-11.82h14.57
			c4.8,0,8.95,2.88,10.79,7c9.11-4.89,19.62-7.46,30.6-7.46c29.45,0,53.68,21.04,58.94,51.17c0.89,4.88,0.89,6.66,0.89,11.42v0.38
			c0,17.39-4.69,30.5-15.2,42.53c-11.65,13.5-25.39,19.45-45.92,19.91c-1,0.02-1.97,0.03-2.91,0.03c0,0,0,0,0,0
			c-10.89,0-18.49-1.43-25.36-4.95l0.01,35.23c0,6.52-5.3,11.82-11.82,11.82L479.8,342.32z M533.46,208.57
			c-8.05,0-14.46,2.62-19.59,8.01c-5.17,5.44-7.68,12.6-7.68,21.9s2.51,16.47,7.68,21.9c5.13,5.39,11.53,8.01,19.59,8.01
			s14.46-2.62,19.59-8.02c5.5-5.79,8.28-13.15,8.28-21.9c0-8.75-2.79-16.12-8.28-21.9C547.92,211.19,541.51,208.57,533.46,208.57z"
			/>
		<path id="XMLID_37_" fill="#24292E" d="M535.76,177.78c28.53,0,51.06,20.46,55.98,48.69c0.87,4.76,0.84,6.23,0.84,11.28
			c0,14.95-3.46,27.97-14.46,40.55c-11.72,13.57-24.98,18.47-43.73,18.88c-0.98,0.02-1.93,0.03-2.85,0.03
			c-13.19,0-20.99-2.22-28.36-7.22l0.02,40.51c0,4.87-3.95,8.82-8.82,8.82l-14.59,0c-4.87,0-8.82-3.95-8.82-8.82V187.06
			c0-4.87,3.95-8.82,8.82-8.82h14.57c4.87,0,8.82,3.95,8.82,8.82c0.19-0.22,0.41-0.37,0.61-0.58
			C513.11,180.78,524.04,177.78,535.76,177.78 M533.46,271.4c8.84,0,16.09-2.98,21.76-8.95c5.67-5.96,9.11-13.95,9.11-23.97
			c0-10.01-3.44-18.01-9.11-23.97c-5.67-5.96-12.92-8.95-21.76-8.95c-8.84,0-16.09,2.98-21.76,8.95c-5.67,5.96-8.5,13.96-8.5,23.97
			c0,10.02,2.83,18,8.5,23.97C517.36,268.42,524.62,271.4,533.46,271.4 M535.76,171.78c-10.46,0-20.52,2.24-29.45,6.52
			c-2.7-3.67-7.05-6.06-11.94-6.06H479.8c-8.17,0-14.82,6.65-14.82,14.82V330.5c0,8.17,6.65,14.82,14.82,14.82l14.59,0
			c8.17,0,14.82-6.65,14.82-14.82l-0.01-30.65c6.22,2.34,13.28,3.36,22.35,3.36c0.97,0,1.96-0.01,2.98-0.03
			c21.47-0.47,35.86-6.74,48.14-20.96c11-12.58,15.92-26.31,15.92-44.47l0-0.38c0-4.81,0-6.81-0.94-11.97
			C592.14,193.85,566.69,171.78,535.76,171.78L535.76,171.78z M533.46,265.4c-7.19,0-12.88-2.32-17.41-7.08
			c-4.61-4.85-6.85-11.34-6.85-19.84c0-8.5,2.24-14.98,6.85-19.84c4.53-4.76,10.22-7.08,17.41-7.08c7.19,0,12.88,2.32,17.41,7.08
			c4.95,5.21,7.46,11.88,7.46,19.84c0,7.95-2.51,14.63-7.46,19.83C546.34,263.09,540.64,265.4,533.46,265.4L533.46,265.4z"/>
	</g>
	<g id="XMLID_1344_">
		<path id="XMLID_26_" fill="#33CC99" d="M630.52,300.9c-6.52,0-11.82-5.3-11.82-11.82V141.04c0-6.52,5.3-11.82,11.82-11.82h19.18
			c6.52,0,11.82,5.3,11.82,11.82v148.04c0,6.52-5.3,11.82-11.82,11.82H630.52z"/>
		<path id="XMLID_23_" fill="#24292E" d="M649.7,132.22c4.87,0,8.82,3.95,8.82,8.82v148.04c0,4.87-3.95,8.82-8.82,8.82h-19.18
			c-4.87,0-8.82-3.95-8.82-8.82V141.04c0-4.87,3.95-8.82,8.82-8.82H649.7 M649.7,126.22h-19.18c-8.17,0-14.82,6.65-14.82,14.82
			v148.04c0,8.17,6.65,14.82,14.82,14.82h19.18c8.17,0,14.82-6.65,14.82-14.82V141.04C664.52,132.87,657.87,126.22,649.7,126.22
			L649.7,126.22z"/>
	</g>
	<g id="XMLID_1336_">
		<path id="XMLID_21_" fill="#33CC99" d="M744.47,351.5c-11.33,0-22.47-3.88-31.88-7.68c-6.42-2.59-13.16-6.81-20.03-12.55
			c-3.62-3.01-6.48-6.68-2.96-13.06l0.21-0.37l9.36-9.36c0.43-0.43,0.84-0.86,1.23-1.27c2.09-2.19,4.25-4.45,7.34-4.45
			c1.6,0,3.18,0.64,4.7,1.89l0.14,0.12c2.46,2.04,6.59,5.46,10.9,7.65c5.8,2.94,10.7,4.75,18.53,5.29c1.48,0.1,2.89,0.15,4.17,0.15
			c8.27,0,12.59-2.13,16.88-5.57c4.15-3.33,6.02-8.48,6.85-12.27c-7.64,3.03-14.07,4.26-21.68,4.26c-2.15,0-4.46-0.09-7.49-0.28
			l-0.15-0.01c-13.72-1.56-25.76-7.31-35.78-17.08c-9.83-9.6-15.89-24.23-17.06-41.21l-0.01-0.1l0-58.52
			c0-6.52,5.3-11.82,11.82-11.82h14.57c6.52,0,11.82,5.3,11.82,11.82l0,56.87c0.67,14.52,12,22.35,22.35,22.35
			c6.08,0,11.83-2.48,16.19-6.97c4.95-5.11,6.83-11.83,6.1-21.78l-0.01-0.11l0-50.35c0-6.52,5.3-11.82,11.82-11.82h14.57
			c6.52,0,11.82,5.3,11.82,11.82l0,97.74c0,22.06-6.14,39.14-18.25,50.77c-11.89,11.41-24.25,15.73-45.61,15.93L744.47,351.5z"/>
		<path id="XMLID_18_" fill="#24292E" d="M796.98,178.24c4.87,0,8.82,3.95,8.82,8.82l0,97.74c0,21.79-6.28,38-17.33,48.6
			c-11.05,10.6-22.5,14.9-43.56,15.1c-0.15,0-0.29,0-0.44,0c-10.48,0-21.07-3.55-30.75-7.46c-7.75-3.13-14.54-8.16-19.24-12.07
			c-3.62-3.02-4.53-5.18-2.26-9.3l9.06-9.06c2.42-2.42,4.23-4.84,6.45-4.84c0.85,0,1.76,0.36,2.78,1.2c2.55,2.11,6.9,5.75,11.6,8.13
			c6.34,3.22,11.58,5.05,19.69,5.6c1.56,0.11,3.01,0.16,4.38,0.16c8.65,0,13.63-2.12,18.76-6.23c8.45-6.77,8.64-19.46,8.64-19.46
			c-10.38,4.78-17.34,6.1-25.36,6.1c-2.31,0-4.71-0.11-7.3-0.28c-6.32-0.72-20.63-3.18-34.02-16.25
			c-8.39-8.18-14.94-21.5-16.17-39.26l0-58.42c0-4.87,3.95-8.82,8.82-8.82h14.57c4.87,0,8.82,3.95,8.82,8.82l0,56.94
			c0.68,15.57,12.54,25.28,25.35,25.28c7.17,0,13.56-2.94,18.34-7.89c5.11-5.27,7.8-12.33,6.93-24.09l0-50.24
			c0-4.87,3.95-8.82,8.82-8.82H796.98 M796.98,172.24H782.4c-8.17,0-14.82,6.65-14.82,14.82l0,50.24v0.22l0.02,0.22
			c0.84,11.51-2.19,16.3-5.26,19.48c-3.84,3.96-8.69,6.06-14.03,6.06c-9.16,0-18.73-6.67-19.35-19.42l0-56.8
			c0-3.96-1.54-7.68-4.34-10.48c-2.8-2.8-6.52-4.34-10.48-4.34h-14.57c-8.17,0-14.82,6.65-14.82,14.82l0,58.42v0.21l0.01,0.21
			c1.22,17.71,7.6,33.04,17.96,43.15c10.5,10.25,23.13,16.28,37.53,17.92l0.15,0.02l0.15,0.01c3.1,0.2,5.47,0.29,7.69,0.29
			c5.99,0,11.27-0.72,16.89-2.4c-0.92,1.87-2.19,3.68-3.93,5.08c-3.97,3.18-7.54,4.91-15,4.91c-1.22,0-2.56-0.05-3.97-0.15
			c-7.36-0.5-11.79-2.13-17.38-4.97c-4.01-2.04-7.97-5.32-10.34-7.28l-0.15-0.12c-2.07-1.71-4.29-2.58-6.61-2.58
			c-4.38,0-7.22,2.99-9.51,5.38c-0.38,0.4-0.77,0.81-1.18,1.22l-9.06,9.06l-0.6,0.6l-0.41,0.74c-4.66,8.44-0.14,13.64,3.67,16.81
			c7.12,5.94,14.13,10.32,20.83,13.03c9.67,3.91,21.15,7.9,33,7.9l0.5,0c22.22-0.21,35.14-4.76,47.65-16.77
			c12.72-12.21,19.17-30.02,19.17-52.93l0-97.74c0-3.96-1.54-7.68-4.34-10.48C804.66,173.78,800.93,172.24,796.98,172.24
			L796.98,172.24z"/>
	</g>
</g>
<g id="smiler_1_">
	<ellipse id="XMLID_1837_" fill="#24292E" cx="533.44" cy="238.56" rx="25.81" ry="26.83"/>
	<path id="path22_2_" display="none" fill="#33CC99" stroke="#24292E" stroke-width="4" stroke-miterlimit="10" d="M554.76,238.49
		c0,11.74-9.51,21.25-21.25,21.25c-11.73,0-21.25-9.51-21.25-21.25c0-11.74,9.52-21.25,21.25-21.25
		C545.24,217.24,554.76,226.75,554.76,238.49"/>
	<g id="g14_3_">
		<g id="g24_3_" transform="translate(29.457,19.2031)">
			<path id="path26_3_" fill="#24AFC4" d="M523.46,212.72c-0.11-0.25-2.78-6.12-8.27-6.12c-5.49,0-8.16,5.87-8.27,6.12
				c-0.17,0.38-0.06,0.83,0.27,1.1c0.32,0.26,0.79,0.27,1.13,0.03c0.02-0.02,2.34-1.67,6.87-1.67c4.5,0,6.82,1.64,6.87,1.67
				c0.16,0.12,0.36,0.18,0.55,0.18c0.2,0,0.41-0.07,0.58-0.2C523.52,213.56,523.63,213.11,523.46,212.72"/>
		</g>
		<g id="g28_3_" transform="translate(17.457,19.2031)">
			<path id="path30_3_" fill="#24AFC4" d="M513.19,212.72c-0.11-0.25-2.78-6.12-8.27-6.12c-5.49,0-8.16,5.87-8.27,6.12
				c-0.17,0.38-0.06,0.83,0.27,1.1c0.33,0.26,0.79,0.27,1.13,0.03c0.02-0.02,2.34-1.67,6.87-1.67c4.5,0,6.82,1.64,6.87,1.67
				c0.16,0.12,0.36,0.18,0.55,0.18c0.2,0,0.41-0.07,0.58-0.2C513.25,213.56,513.36,213.11,513.19,212.72"/>
		</g>
		<g id="g32_3_" transform="translate(19,15)">
			<path id="path34_3_" fill="#24AFC4" d="M514.51,224.73c-6.72,0-11.19-0.78-16.7-1.86c-1.26-0.24-3.71,0-3.71,3.71
				c0,7.42,8.53,16.7,20.42,16.7c11.89,0,20.42-9.28,20.42-16.7c0-3.71-2.45-3.96-3.71-3.71
				C525.69,223.95,521.23,224.73,514.51,224.73"/>
		</g>
		<g id="g36_3_" transform="translate(10,14)" display="none">
			<path id="path38_3_" display="inline" fill="#24AFC4" d="M506.8,227.59c0,0,5.57,1.86,16.7,1.86s16.7-1.86,16.7-1.86
				s-3.71,7.42-16.7,7.42S506.8,227.59,506.8,227.59"/>
		</g>
	</g>
</g>
</svg>
