<svg id="womp_box" data-name="womp box" xmlns="http://www.w3.org/2000/svg" xmlns:xlink="http://www.w3.org/1999/xlink"
    viewBox="0 0 20 20">
    <defs>
        <style>
            .cls-1,
            .cls-4 {
                fill: none;
            }

            .cls-2 {
                clip-path: url(#clip-path);
            }

            .cls-3 {
                fill: #3c9;
            }

            .cls-4 {
                stroke: #1e1f24;
                stroke-linecap: round;
                stroke-linejoin: round;
                stroke-width: 3px;
            }

        </style>
        <clipPath id="clip-path" transform="translate(-2 -2)">
            <path class="cls-1" d="M 228.7 -213 H -204.7 a 8.3 8.3 0 0 0 -8.3 8.3 V 228.7 a 8.3 8.3 0 0 0 8.3 8.3 H 228.7 a 8.3 8.3 0 0 0 8.3 -8.3 V -204.7 A 8.3 8.3 0 0 0 228.7 -213 Z M 19 13.8 A 5.2 5.2 0 0 1 13.8 19 H 10.2 A 5.2 5.2 0 0 1 5 13.8 V 10.2 A 5.2 5.2 0 0 1 10.2 5 h 3.6 A 5.2 5.2 0 0 1 19 10.2 Z" />
        </clipPath>
    </defs>
    <title>checkbox</title>
    <g class="cls-2">
        <g id="womp_box_backpack" data-name="womp box backpack">
            <rect class="cls-3" width="20" height="20" rx="8" />
        </g>
        <polyline id="checky_wumpus" data-name="checky wumpus" class="cls-4" points="5.3,10.2 8.5,13.4 14.8,7" />
    </g>
</svg>
